<bug id='6429' author='garybradski' open_date='2016-04-19T08:24:11Z' closed_time='2016-07-08T15:16:45Z'>
	<summary>tree.avi in .../samples/data/tree.avi is corrupted (lost index)</summary>
	<description>
tree.avi found in .../samples/data/tree.avi is corrupted (missing index or something). I've fixed it here
&lt;denchmark-link:https://github.com/Itseez/opencv/files/225481/tree.avi.zip&gt;tree.avi.zip&lt;/denchmark-link&gt;

	</description>
	<comments>
		<comment id='1' author='garybradski' date='2016-04-19T11:28:01Z'>
		Is it necessary to change video metadata (codec, fps) and to add audio stream (with twice bandwidth than video bitrate)?
How we can reproduce an original problem? (I have some warning, but is it about encoded data, not index. Also result of ffmpeg -i tree tree%05d.png contains bad frames in the end)
Before:
&lt;denchmark-code&gt;  Metadata:
    creation_time   : 2005-04-29 17:09:53
  Duration: 00:00:29.53, start: 0.000000, bitrate: 355 kb/s
    Stream #0:0: Video: cinepak (cvid / 0x64697663), rgb24, 320x240, 15 fps, 15 tbr, 15 tbn, 15 tbc
&lt;/denchmark-code&gt;

After:
&lt;denchmark-code&gt;  Metadata:
    encoder         : Lavf57.26.100
  Duration: 00:00:30.17, start: 0.000000, bitrate: 522 kb/s
    Stream #0:0: Video: msmpeg4v2 (MP42 / 0x3234504D), yuv420p, 320x240, 153 kb/s, SAR 1:1 DAR 4:3, 6 fps, 6 tbr, 6 tbn, 6 tbc
    Stream #0:1: Audio: adpcm_ms ([2][0][0][0] / 0x0002), 44100 Hz, 2 channels, s16, 352 kb/s
&lt;/denchmark-code&gt;

/cc &lt;denchmark-link:https://github.com/vpisarev&gt;@vpisarev&lt;/denchmark-link&gt;

		</comment>
		<comment id='2' author='garybradski' date='2016-04-19T12:06:42Z'>
		There is truncated video with broken frames, but with same video codec (1.1 Mb):
&lt;denchmark-link:https://github.com/Itseez/opencv/files/225814/tree.avi.zip&gt;tree.avi.zip&lt;/denchmark-link&gt;

&lt;denchmark-code&gt;$ ffprobe tree.avi
...
Input #0, avi, from 'tree.avi':
  Metadata:
    encoder         : Lavf56.40.101
  Duration: 00:00:29.60, start: 0.000000, bitrate: 338 kb/s
    Stream #0:0: Video: cinepak (cvid / 0x64697663), rgb24, 320x240, 334 kb/s, 15 fps, 15 tbr, 15 tbn, 15 tbc
&lt;/denchmark-code&gt;

		</comment>
	</comments>
</bug>